<?xml version="1.0" encoding="UTF-8"?>
<svg width="38px" height="38px" viewBox="0 0 38 38" version="1.1" xmlns="http://www.w3.org/2000/svg" xmlns:xlink="http://www.w3.org/1999/xlink">
    <title>Page 1</title>
    <g id="Onboarding-UI" stroke="none" stroke-width="1" fill="none" fill-rule="evenodd" stroke-linecap="round" stroke-linejoin="round">
        <g id="Sign-up_Exercise" transform="translate(-701.000000, -215.000000)" stroke-width="1.67344">
            <g id="Page-1" transform="translate(702.000000, 216.000000)">
                <path d="M35.9553375,17.9960304 C35.9553375,27.9146732 27.9148018,35.9552089 17.9961589,35.9552089 C8.07751607,35.9552089 0.0369803571,27.9146732 0.0369803571,17.9960304 C0.0369803571,8.0773875 8.07751607,0.0368517857 17.9961589,0.0368517857 C27.9148018,0.0368517857 35.9553375,8.0773875 35.9553375,17.9960304 Z" id="Stroke-1" stroke="#0B1153"></path>
                <path d="M25.5854893,22.7937696 L20.5665429,22.7937696 L17.8721679,26.9328054 L15.425775,22.7937696 L10.4068286,22.7937696 C9.44350714,22.7937696 8.7264,22.0205732 8.7264,21.0572518 L8.7264,12.7722696 C8.7264,11.8087875 9.44350714,11.0269125 10.4068286,11.0269125 L25.5854893,11.0269125 C26.5488107,11.0269125 27.3568821,11.8087875 27.3568821,12.7722696 L27.3568821,21.0572518 C27.3568821,22.0205732 26.5488107,22.7937696 25.5854893,22.7937696 Z" id="Stroke-3" stroke="#028DFF"></path>
            </g>
        </g>
    </g>
</svg>